<?xml version="1.0" encoding="utf-8"?>
<!-- Generator: Adobe Illustrator 15.0.0, SVG Export Plug-In . SVG Version: 6.00 Build 0)  -->
<!DOCTYPE svg PUBLIC "-//W3C//DTD SVG 1.1//EN" "http://www.w3.org/Graphics/SVG/1.1/DTD/svg11.dtd">
<svg version="1.1" xmlns="http://www.w3.org/2000/svg" xmlns:xlink="http://www.w3.org/1999/xlink" x="0px" y="0px" width="300px"
	 height="300px" viewBox="0 0 300 300" enable-background="new 0 0 300 300" xml:space="preserve">
<g id="Layer_1">
</g>
<g id="Layer_2" display="none">
	
		<image display="inline" overflow="visible" width="1600" height="900" xlink:href="3B3D7012.jpg"  transform="matrix(1 0 0 1 -43.0635 -220.9082)">
	</image>
</g>
<g id="Layer_3">
	<path d="M149.177,114.253c-19.11,0-34.602,15.491-34.602,34.602s15.492,34.601,34.602,34.601s34.601-15.49,34.601-34.601
		S168.287,114.253,149.177,114.253z M149.177,171.157c-12.317,0-22.302-9.984-22.302-22.302s9.985-22.302,22.302-22.302
		s22.302,9.984,22.302,22.302S161.494,171.157,149.177,171.157z"/>
	<path d="M94.273,175.448c3.447,6.59,13.787,19.565,19.463,22.91c-14.395-5.271-43.894-19.362-63.459-49.672
		c11.05-13.99,24.836-34.771,62.243-48.152s68.629-5.474,84.241,21.896c13.787,25.343,2.23,48.456,2.23,48.456
		c-3.447,2.23-9.394,6.353-22.099,10.272c9.597-7.975,16.895-22.438,13.921-39.468c-2.973-17.03-16.084-36.089-49.469-34.737
		s-65.96,26.897-75.962,42.171C69.842,155.072,85.319,170.819,94.273,175.448z"/>
	<path d="M203.728,122.552c-3.447-6.59-13.787-19.565-19.463-22.91c14.395,5.271,43.894,19.362,63.459,49.673
		c-11.05,13.988-24.836,34.77-62.243,48.151c-37.406,13.381-68.629,5.474-84.241-21.896c-13.787-25.343-2.23-48.456-2.23-48.456
		c3.447-2.23,9.394-6.353,22.099-10.272c-9.597,7.975-16.895,22.438-13.921,39.468c2.973,17.03,16.084,36.088,49.469,34.736
		c33.385-1.351,65.96-26.896,75.963-42.171C228.159,142.928,212.682,127.181,203.728,122.552z"/>
</g>
</svg>
